<svg width="149" height="72" viewBox="0 0 149 72" fill="none" xmlns="http://www.w3.org/2000/svg">
<path d="M11.1605 56.5022V71.4341H2.82532V36.525H10.8878V50.0591H11.1776C11.7685 48.4454 12.7344 47.1841 14.0753 46.275C15.4276 45.3659 17.081 44.9113 19.0355 44.9113C20.8765 44.9113 22.4787 45.3204 23.8424 46.1386C25.206 46.9454 26.2628 48.0875 27.0128 49.5647C27.7742 51.042 28.1492 52.7693 28.1378 54.7466V71.4341H19.8026V56.3829C19.814 54.9284 19.4503 53.792 18.7117 52.9738C17.973 52.1557 16.9333 51.7466 15.5924 51.7466C14.7174 51.7466 13.9446 51.9397 13.2742 52.3261C12.6151 52.7011 12.098 53.2409 11.723 53.9454C11.3594 54.65 11.1719 55.5022 11.1605 56.5022Z" fill="white"/>
<path d="M40.7216 71.8772C39.0512 71.8772 37.5682 71.5988 36.2728 71.042C34.9887 70.4738 33.9716 69.6216 33.2216 68.4852C32.483 67.3375 32.1137 65.9 32.1137 64.1727C32.1137 62.7181 32.3694 61.4909 32.8807 60.4909C33.3921 59.4909 34.0966 58.6784 34.9944 58.0534C35.8921 57.4284 36.9262 56.9568 38.0966 56.6386C39.2671 56.3091 40.5171 56.0875 41.8466 55.9738C43.3353 55.8375 44.5341 55.6954 45.4432 55.5477C46.3523 55.3886 47.0114 55.167 47.4205 54.8829C47.8409 54.5875 48.0512 54.1727 48.0512 53.6386V53.5534C48.0512 52.6784 47.75 52.0022 47.1478 51.525C46.5455 51.0477 45.733 50.8091 44.7103 50.8091C43.608 50.8091 42.7216 51.0477 42.0512 51.525C41.3807 52.0022 40.9546 52.6613 40.7728 53.5022L33.0853 53.2295C33.3125 51.6386 33.8978 50.2181 34.8409 48.9681C35.7955 47.7068 37.1023 46.7181 38.7614 46.0022C40.4319 45.275 42.4375 44.9113 44.7784 44.9113C46.4489 44.9113 47.9887 45.1102 49.3978 45.5079C50.8069 45.8943 52.0341 46.4625 53.0796 47.2125C54.125 47.9511 54.9319 48.8602 55.5 49.9397C56.0796 51.0193 56.3694 52.2522 56.3694 53.6386V71.4341H48.5284V67.7863H48.3239C47.858 68.6727 47.2614 69.4227 46.5341 70.0363C45.8182 70.65 44.9716 71.1102 43.9944 71.417C43.0284 71.7238 41.9375 71.8772 40.7216 71.8772ZM43.2955 66.4227C44.1932 66.4227 45 66.2409 45.7159 65.8772C46.4432 65.5136 47.0228 65.0136 47.4546 64.3772C47.8864 63.7295 48.1023 62.9795 48.1023 62.1272V59.6386C47.8637 59.7636 47.5739 59.8772 47.233 59.9795C46.9034 60.0818 46.5398 60.1784 46.1421 60.2693C45.7444 60.3602 45.3353 60.4397 44.9148 60.5079C44.4944 60.5761 44.0909 60.6386 43.7046 60.6954C42.9205 60.8204 42.25 61.0136 41.6932 61.275C41.1478 61.5363 40.7273 61.8772 40.4319 62.2977C40.1478 62.7068 40.0057 63.1954 40.0057 63.7636C40.0057 64.6272 40.3125 65.2863 40.9262 65.7409C41.5512 66.1954 42.3409 66.4227 43.2955 66.4227Z" fill="white"/>
<path d="M61.4659 71.4341V36.525H69.8012V49.7352H69.9716C70.3125 48.9397 70.7955 48.1727 71.4205 47.4341C72.0568 46.6954 72.8637 46.0931 73.8409 45.6272C74.8296 45.15 76.0114 44.9113 77.3864 44.9113C79.2046 44.9113 80.9034 45.3886 82.483 46.3431C84.0739 47.2977 85.358 48.7693 86.3353 50.7579C87.3125 52.7466 87.8012 55.2806 87.8012 58.3602C87.8012 61.3261 87.3296 63.8091 86.3864 65.8091C85.4546 67.8091 84.1932 69.3091 82.6023 70.3091C81.0228 71.3091 79.2671 71.8091 77.3353 71.8091C76.0171 71.8091 74.875 71.5932 73.9091 71.1613C72.9432 70.7295 72.1307 70.1613 71.4716 69.4568C70.8239 68.7522 70.3239 67.9966 69.9716 67.1897H69.7159V71.4341H61.4659ZM69.6307 58.3432C69.6307 59.7522 69.8182 60.9795 70.1932 62.025C70.5796 63.0704 71.1307 63.8829 71.8466 64.4625C72.5739 65.0306 73.4432 65.3147 74.4546 65.3147C75.4773 65.3147 76.3466 65.0306 77.0625 64.4625C77.7785 63.8829 78.3182 63.0704 78.6819 62.025C79.0569 60.9795 79.2444 59.7522 79.2444 58.3432C79.2444 56.9341 79.0569 55.7125 78.6819 54.6784C78.3182 53.6443 77.7785 52.8431 77.0625 52.275C76.358 51.7068 75.4887 51.4227 74.4546 51.4227C73.4319 51.4227 72.5625 51.7011 71.8466 52.2579C71.1307 52.8147 70.5796 53.6102 70.1932 54.6443C69.8182 55.6784 69.6307 56.9113 69.6307 58.3432Z" fill="white"/>
<path d="M92.1691 71.4341V45.2522H100.504V71.4341H92.1691ZM96.3452 42.2011C95.1748 42.2011 94.1691 41.8147 93.3282 41.042C92.4873 40.2579 92.0668 39.3147 92.0668 38.2125C92.0668 37.1216 92.4873 36.1897 93.3282 35.417C94.1691 34.6329 95.1748 34.2409 96.3452 34.2409C97.527 34.2409 98.5327 34.6329 99.3623 35.417C100.203 36.1897 100.624 37.1216 100.624 38.2125C100.624 39.3147 100.203 40.2579 99.3623 41.042C98.5327 41.8147 97.527 42.2011 96.3452 42.2011Z" fill="white"/>
<path d="M120.588 45.2522V51.3886H104.071V45.2522H120.588ZM107.531 38.9795H115.867V63.2011C115.867 63.7125 115.946 64.1272 116.105 64.4454C116.276 64.7522 116.52 64.9738 116.838 65.1102C117.156 65.2352 117.537 65.2977 117.98 65.2977C118.298 65.2977 118.634 65.2693 118.986 65.2125C119.349 65.1443 119.622 65.0875 119.804 65.042L121.065 71.0591C120.668 71.1727 120.105 71.3147 119.378 71.4852C118.662 71.6557 117.804 71.7636 116.804 71.8091C114.849 71.9 113.173 71.6727 111.776 71.1272C110.389 70.5704 109.327 69.7068 108.588 68.5363C107.861 67.3659 107.509 65.8943 107.531 64.1216V38.9795Z" fill="white"/>
<path d="M147.371 53.2466L139.717 53.4511C139.638 52.9056 139.422 52.4227 139.07 52.0022C138.717 51.5704 138.257 51.2352 137.689 50.9966C137.132 50.7466 136.484 50.6216 135.746 50.6216C134.78 50.6216 133.956 50.8147 133.274 51.2011C132.604 51.5875 132.274 52.1102 132.286 52.7693C132.274 53.2807 132.479 53.7238 132.899 54.0988C133.331 54.4738 134.098 54.775 135.2 55.0022L140.246 55.9568C142.859 56.4568 144.803 57.2863 146.075 58.4454C147.359 59.6045 148.007 61.1386 148.018 63.0477C148.007 64.8431 147.473 66.4057 146.416 67.7352C145.371 69.0647 143.939 70.0988 142.121 70.8375C140.303 71.5647 138.223 71.9284 135.882 71.9284C132.144 71.9284 129.195 71.1613 127.036 69.6272C124.888 68.0818 123.661 66.0136 123.354 63.4227L131.587 63.2182C131.769 64.1727 132.24 64.9 133.001 65.4C133.763 65.9 134.734 66.15 135.916 66.15C136.984 66.15 137.854 65.9511 138.524 65.5534C139.195 65.1556 139.536 64.6272 139.547 63.9682C139.536 63.3772 139.274 62.9057 138.763 62.5534C138.251 62.1897 137.45 61.9056 136.359 61.7011L131.791 60.8318C129.166 60.3545 127.212 59.4738 125.928 58.1897C124.644 56.8943 124.007 55.2466 124.019 53.2466C124.007 51.4966 124.473 50.0022 125.416 48.7636C126.359 47.5136 127.7 46.5591 129.439 45.9C131.178 45.2409 133.229 44.9113 135.592 44.9113C139.138 44.9113 141.933 45.6557 143.979 47.1443C146.024 48.6216 147.155 50.6556 147.371 53.2466Z" fill="white"/>
<rect x="0.683273" y="0.934052" width="15" height="15" rx="3.5" fill="#18181B" stroke="#27272A"/>
<rect x="20.6833" y="0.934052" width="15" height="15" rx="3.5" fill="#4C1D95" stroke="#6D28D9"/>
<rect x="40.6833" y="0.934052" width="15" height="15" rx="3.5" fill="#5B21B6" stroke="#7C3AED"/>
<rect x="60.6833" y="0.934052" width="15" height="15" rx="3.5" fill="#6D28D9" stroke="#8B5CF6"/>
<rect x="80.6833" y="0.934052" width="15" height="15" rx="3.5" fill="#7C3AED" stroke="#A78BFA"/>
<rect x="100.683" y="0.934052" width="15" height="15" rx="3.5" fill="#8B5CF6" stroke="#C4B5FD"/>
</svg>
